<?xml version="1.0" encoding="UTF-8" standalone="no"?>
<!DOCTYPE svg PUBLIC "-//W3C//DTD SVG 1.1//EN" "http://www.w3.org/Graphics/SVG/1.1/DTD/svg11.dtd">
<svg width="100%" height="100%" viewBox="0 0 256 256" version="1.1" xmlns="http://www.w3.org/2000/svg" xmlns:xlink="http://www.w3.org/1999/xlink" xml:space="preserve" xmlns:serif="http://www.serif.com/" style="fill-rule:evenodd;clip-rule:evenodd;stroke-linejoin:round;stroke-miterlimit:2;">
    <g id="commercial" transform="matrix(2.79406,0,0,2.79459,-219.86,-1843.61)">
        <path id="rounded-rect" d="M166,668.149C166,665.859 164.14,664 161.85,664L87.15,664C84.86,664 83,665.859 83,668.149L83,742.851C83,745.141 84.86,747 87.15,747L161.85,747C164.14,747 166,745.141 166,742.851L166,668.149Z" style="fill:rgb(20,230,245);"/>
        <clipPath id="_clip1">
            <path id="rounded-rect1" serif:id="rounded-rect" d="M166,668.149C166,665.859 164.14,664 161.85,664L87.15,664C84.86,664 83,665.859 83,668.149L83,742.851C83,745.141 84.86,747 87.15,747L161.85,747C164.14,747 166,745.141 166,742.851L166,668.149Z"/>
        </clipPath>
        <g clip-path="url(#_clip1)">
            <g id="shadow" transform="matrix(1,0,0,0.1,0,672.3)">
                <path d="M166,705.5C166,682.596 164.14,664 161.849,664L87.151,664C84.86,664 83,682.596 83,705.5C83,728.404 84.86,747 87.151,747L161.849,747C164.14,747 166,728.404 166,705.5Z" style="fill-opacity:0.5;"/>
            </g>
        </g>
        <path id="rounded-rect2" serif:id="rounded-rect" d="M170.435,668.149C170.435,663.412 166.588,659.566 161.85,659.566C161.85,659.566 87.15,659.566 87.15,659.566C82.412,659.566 78.565,663.412 78.565,668.149L78.565,742.851C78.565,747.588 82.412,751.434 87.15,751.434L161.85,751.434C166.588,751.434 170.435,747.588 170.435,742.851C170.435,742.851 170.435,668.149 170.435,668.149ZM166,668.149C166,665.859 164.14,664 161.85,664L87.15,664C84.86,664 83,665.859 83,668.149L83,742.851C83,745.141 84.86,747 87.15,747L161.85,747C164.14,747 166,745.141 166,742.851L166,668.149Z"/>
        <g id="basket" transform="matrix(0.879518,0,0,0.862448,-182.1,77.101)">
            <path d="M365.067,722.1L373.5,722.1L365.2,747L332,747L323.7,722.1L332.133,722.1L338.225,710.65L358.975,710.65L365.067,722.1ZM361.058,722.1L356.925,713.8L339.925,713.8L336.025,722.1L361.058,722.1Z" style="fill-opacity:0.45;"/>
            <path d="M329.426,717.462L334.227,708.439C335.022,706.944 336.557,706.012 338.225,706.012L358.975,706.012C360.643,706.012 362.178,706.944 362.973,708.439L367.774,717.462L373.5,717.462C374.967,717.462 376.343,718.184 377.198,719.399C378.052,720.615 378.278,722.176 377.806,723.592L369.506,748.492C368.88,750.373 367.148,751.638 365.2,751.638L332,751.638C330.052,751.638 328.32,750.373 327.694,748.492L319.394,723.592C318.922,722.176 319.148,720.615 320.002,719.399C320.857,718.184 322.233,717.462 323.7,717.462L329.426,717.462ZM365.067,722.1L373.5,722.1L365.2,747L332,747L323.7,722.1L332.133,722.1L338.225,710.65L358.975,710.65L365.067,722.1ZM361.058,722.1L356.925,713.8L339.925,713.8L336.025,722.1L361.058,722.1Z"/>
        </g>
    </g>
</svg>
