<?xml version="1.0" encoding="UTF-8" standalone="no"?>
<!DOCTYPE svg PUBLIC "-//W3C//DTD SVG 1.1//EN" "http://www.w3.org/Graphics/SVG/1.1/DTD/svg11.dtd">
<svg width="100%" height="100%" viewBox="0 0 256 256" version="1.1" xmlns="http://www.w3.org/2000/svg" xmlns:xlink="http://www.w3.org/1999/xlink" xml:space="preserve" xmlns:serif="http://www.serif.com/" style="fill-rule:evenodd;clip-rule:evenodd;stroke-linejoin:round;stroke-miterlimit:2;">
    <g transform="matrix(3.01147,0,0,3.01205,-246.904,-1997)">
        <g id="house">
            <g id="rounded-rect">
                <path d="M167.064,668.149C167.064,665.272 164.728,662.936 161.85,662.936L87.15,662.936C84.272,662.936 81.936,665.272 81.936,668.149L81.936,742.851C81.936,745.728 84.272,748.064 87.15,748.064L161.85,748.064C164.728,748.064 167.064,745.728 167.064,742.851C167.064,742.851 167.064,668.149 167.064,668.149ZM166,668.149C166,665.859 164.14,664 161.85,664L87.15,664C84.86,664 83,665.859 83,668.149L83,742.851C83,745.141 84.86,747 87.15,747L161.85,747C164.14,747 166,745.141 166,742.851L166,668.149Z"/>
                <path d="M166,668.149C166,665.859 164.14,664 161.85,664L87.15,664C84.86,664 83,665.859 83,668.149L83,742.851C83,745.141 84.86,747 87.15,747L161.85,747C164.14,747 166,745.141 166,742.851L166,668.149Z" style="fill:white;"/>
            </g>
        </g>
    </g>
</svg>
