<?xml version="1.0" encoding="UTF-8" standalone="no"?>
<!DOCTYPE svg PUBLIC "-//W3C//DTD SVG 1.1//EN" "http://www.w3.org/Graphics/SVG/1.1/DTD/svg11.dtd">
<svg width="100%" height="100%" viewBox="0 0 256 256" version="1.1" xmlns="http://www.w3.org/2000/svg" xmlns:xlink="http://www.w3.org/1999/xlink" xml:space="preserve" xmlns:serif="http://www.serif.com/" style="fill-rule:evenodd;clip-rule:evenodd;stroke-linejoin:round;stroke-miterlimit:2;">
    <g id="industry" transform="matrix(2.79524,0,0,2.79577,-220.007,-1844.39)">
        <path id="rounded-rect" d="M166,668.149C166,665.859 164.14,664 161.85,664L87.15,664C84.86,664 83,665.859 83,668.149L83,742.851C83,745.141 84.86,747 87.15,747L161.85,747C164.14,747 166,745.141 166,742.851L166,668.149Z" style="fill:rgb(255,144,0);"/>
        <clipPath id="_clip1">
            <path id="rounded-rect1" serif:id="rounded-rect" d="M166,668.149C166,665.859 164.14,664 161.85,664L87.15,664C84.86,664 83,665.859 83,668.149L83,742.851C83,745.141 84.86,747 87.15,747L161.85,747C164.14,747 166,745.141 166,742.851L166,668.149Z"/>
        </clipPath>
        <g clip-path="url(#_clip1)">
            <g id="shadow" transform="matrix(1,0,0,0.1,0,672.3)">
                <path d="M166,705.5C166,682.596 164.14,664 161.849,664L87.151,664C84.86,664 83,682.596 83,705.5C83,728.404 84.86,747 87.151,747L161.849,747C164.14,747 166,728.404 166,705.5Z" style="fill-opacity:0.5;"/>
            </g>
        </g>
        <path id="rounded-rect2" serif:id="rounded-rect" d="M170.435,668.149C170.435,663.412 166.588,659.566 161.85,659.566C161.85,659.566 87.15,659.566 87.15,659.566C82.412,659.566 78.565,663.412 78.565,668.149C78.565,668.149 78.565,742.851 78.565,742.851C78.565,747.588 82.412,751.434 87.15,751.434L161.85,751.434C166.588,751.434 170.435,747.588 170.435,742.851C170.435,742.851 170.435,668.149 170.435,668.149ZM166,668.149C166,665.859 164.14,664 161.85,664L87.15,664C84.86,664 83,665.859 83,668.149L83,742.851C83,745.141 84.86,747 87.15,747L161.85,747C164.14,747 166,745.141 166,742.851L166,668.149Z"/>
        <g id="cog" transform="matrix(0.741896,0,0,0.741754,-238.639,250.667)">
            <path d="M479.716,590.026L479.967,585.351C480.088,583.089 481.731,581.198 483.954,580.762C487.748,580.017 491.652,580.017 495.446,580.762C497.669,581.198 499.312,583.089 499.433,585.351L499.684,590.026C500.5,590.432 501.29,590.888 502.049,591.391L506.223,589.271C508.243,588.245 510.702,588.722 512.191,590.43C514.733,593.344 516.685,596.724 517.938,600.382C518.671,602.526 517.855,604.894 515.957,606.13L512.034,608.684C512.09,609.594 512.09,610.506 512.034,611.416L515.957,613.97C517.855,615.206 518.671,617.574 517.938,619.718C516.685,623.376 514.733,626.756 512.191,629.67C510.702,631.378 508.243,631.855 506.223,630.829L502.049,628.709C501.29,629.212 500.5,629.668 499.684,630.074L499.433,634.749C499.312,637.011 497.669,638.902 495.446,639.338C491.652,640.083 487.748,640.083 483.954,639.338C481.731,638.902 480.088,637.011 479.967,634.749L479.716,630.074C478.9,629.668 478.11,629.212 477.351,628.709L473.177,630.829C471.157,631.855 468.698,631.378 467.209,629.67C464.667,626.756 462.715,623.376 461.462,619.718C460.729,617.574 461.545,615.206 463.443,613.97L467.366,611.416C467.31,610.506 467.31,609.594 467.366,608.684L463.443,606.13C461.545,604.894 460.729,602.526 461.462,600.382C462.715,596.724 464.667,593.344 467.209,590.43C468.698,588.722 471.157,588.245 473.177,589.271L477.351,591.391C478.11,590.888 478.9,590.432 479.716,590.026ZM494.494,585.616C491.328,584.995 488.072,584.995 484.906,585.616L484.488,593.418C482.039,594.185 479.791,595.483 477.902,597.22L470.936,593.681C468.816,596.112 467.187,598.932 466.142,601.984L472.69,606.248C472.13,608.752 472.13,611.348 472.69,613.852L466.142,618.116C467.187,621.168 468.816,623.988 470.936,626.419L477.902,622.88C479.791,624.617 482.039,625.915 484.488,626.682L484.906,634.484C488.072,635.105 491.328,635.105 494.494,634.484L494.912,626.682C497.361,625.915 499.609,624.617 501.498,622.88L508.464,626.419C510.584,623.988 512.213,621.168 513.258,618.116L506.71,613.852C507.27,611.348 507.27,608.752 506.71,606.248L513.258,601.984C512.213,598.932 510.584,596.112 508.464,593.681L501.498,597.22C499.609,595.483 497.361,594.185 494.912,593.418L494.494,585.616ZM489.7,598.596C496.022,598.596 501.154,603.728 501.154,610.05C501.154,616.372 496.022,621.504 489.7,621.504C483.378,621.504 478.246,616.372 478.246,610.05C478.246,603.728 483.378,598.596 489.7,598.596ZM489.7,603.543C493.291,603.543 496.207,606.459 496.207,610.05C496.207,613.641 493.291,616.557 489.7,616.557C486.109,616.557 483.193,613.641 483.193,610.05C483.193,606.459 486.109,603.543 489.7,603.543Z"/>
            <path d="M494.494,585.616C491.328,584.995 488.072,584.995 484.906,585.616L484.488,593.418C482.039,594.185 479.791,595.483 477.902,597.22L470.936,593.681C468.816,596.112 467.187,598.932 466.142,601.984L472.69,606.248C472.13,608.752 472.13,611.348 472.69,613.852L466.142,618.116C467.187,621.168 468.816,623.988 470.936,626.419L477.902,622.88C479.791,624.617 482.039,625.915 484.488,626.682L484.906,634.484C488.072,635.105 491.328,635.105 494.494,634.484L494.912,626.682C497.361,625.915 499.609,624.617 501.498,622.88L508.464,626.419C510.584,623.988 512.213,621.168 513.258,618.116L506.71,613.852C507.27,611.348 507.27,608.752 506.71,606.248L513.258,601.984C512.213,598.932 510.584,596.112 508.464,593.681L501.498,597.22C499.609,595.483 497.361,594.185 494.912,593.418L494.494,585.616ZM489.7,598.596C496.022,598.596 501.154,603.728 501.154,610.05C501.154,616.372 496.022,621.504 489.7,621.504C483.378,621.504 478.246,616.372 478.246,610.05C478.246,603.728 483.378,598.596 489.7,598.596Z" style="fill-opacity:0.45;"/>
        </g>
    </g>
</svg>
