<?xml version="1.0" encoding="UTF-8" standalone="no"?>
<!DOCTYPE svg PUBLIC "-//W3C//DTD SVG 1.1//EN" "http://www.w3.org/Graphics/SVG/1.1/DTD/svg11.dtd">
<svg width="100%" height="100%" viewBox="0 0 256 256" version="1.1" xmlns="http://www.w3.org/2000/svg" xmlns:xlink="http://www.w3.org/1999/xlink" xml:space="preserve" xmlns:serif="http://www.serif.com/" style="fill-rule:evenodd;clip-rule:evenodd;stroke-linejoin:round;stroke-miterlimit:2;">
    <g id="house" transform="matrix(2.79465,0,0,2.79518,-219.909,-1844)">
        <path id="rounded-rect" d="M166,668.149C166,665.859 164.14,664 161.85,664L87.15,664C84.86,664 83,665.859 83,668.149L83,742.851C83,745.141 84.86,747 87.15,747L161.85,747C164.14,747 166,745.141 166,742.851L166,668.149Z" style="fill:rgb(141,255,0);"/>
        <clipPath id="_clip1">
            <path id="rounded-rect1" serif:id="rounded-rect" d="M166,668.149C166,665.859 164.14,664 161.85,664L87.15,664C84.86,664 83,665.859 83,668.149L83,742.851C83,745.141 84.86,747 87.15,747L161.85,747C164.14,747 166,745.141 166,742.851L166,668.149Z"/>
        </clipPath>
        <g clip-path="url(#_clip1)">
            <g id="shadow" transform="matrix(1,0,0,0.1,0,672.3)">
                <path d="M166,705.5C166,682.596 164.14,664 161.849,664L87.151,664C84.86,664 83,682.596 83,705.5C83,728.404 84.86,747 87.151,747L161.849,747C164.14,747 166,728.404 166,705.5Z" style="fill-opacity:0.5;"/>
            </g>
        </g>
        <path id="rounded-rect2" serif:id="rounded-rect" d="M170.435,668.149C170.435,663.412 166.588,659.566 161.85,659.566L87.15,659.566C82.412,659.566 78.565,663.412 78.565,668.149L78.565,742.851C78.565,747.588 82.412,751.434 87.15,751.434C87.15,751.434 161.85,751.434 161.85,751.434C166.588,751.434 170.435,747.588 170.435,742.851C170.435,742.851 170.435,668.149 170.435,668.149ZM166,668.149C166,665.859 164.14,664 161.85,664L87.15,664C84.86,664 83,665.859 83,668.149L83,742.851C83,745.141 84.86,747 87.15,747L161.85,747C164.14,747 166,745.141 166,742.851L166,668.149Z"/>
        <g id="house1" serif:id="house" transform="matrix(1.22075,0,0,1.0512,-194.666,21.65)">
            <path d="M249,664L249,643.25L261.45,630.8L273.9,643.25L273.9,664L249,664Z" style="fill-opacity:0.45;"/>
            <path d="M245.367,664C245.367,666.33 246.994,668.218 249,668.218L273.9,668.218C275.906,668.218 277.533,666.33 277.533,664L277.533,643.25C277.533,642.022 277.072,640.855 276.271,640.054L263.821,627.604C262.458,626.241 260.442,626.241 259.079,627.604L246.629,640.054C245.828,640.855 245.367,642.022 245.367,643.25L245.367,664ZM249,664L249,643.25L261.45,630.8L273.9,643.25L273.9,664L249,664Z"/>
        </g>
    </g>
</svg>
